<?xml version="1.0" encoding="UTF-8"?>
<svg id="Capa_1" data-name="Capa 1" xmlns="http://www.w3.org/2000/svg" viewBox="0 0 1874.58 331.12">
  <defs>
    <style>
      .cls-1 {
        fill-rule: evenodd;
      }

      .cls-1, .cls-2 {
        fill: #002f57;
      }
    </style>
  </defs>
  <path class="cls-1" d="M191.99,68.74c0,37.97,30.66,68.74,68.5,68.74s68.5-30.77,68.5-68.74S298.32,0,260.49,0s-68.5,30.78-68.5,68.74"/>
  <path class="cls-1" d="M260.63,164.7c-52.89,0-95.77-43.03-95.77-96.11,0-25.69,10.1-48.97,26.47-66.21C182.58.94,173.65,0,164.48,0,73.65,0,0,73.9,0,165.08s73.65,165.08,164.48,165.08,164.5-73.91,164.5-165.08c0-9.19-.94-18.15-2.38-26.93-17.18,16.42-40.37,26.56-65.97,26.56"/>
  <path class="cls-2" d="M598.1,70.35c-12.68-8.54-27.73-12.81-45.17-12.81s-32.32,4.27-44.31,12.81c-3.8,2.72-7.19,5.85-10.41,9.19v-16.84h-32.01v268.43h36.14v-95.87c2.1,1.89,4.23,3.78,6.54,5.44,12.05,8.67,26.96,13,44.73,13s32.26-4.31,44.82-12.91c12.57-8.61,22.26-20.34,29.08-35.19,6.82-14.85,10.24-31.58,10.24-50.16s-3.44-35.42-10.32-50.16c-6.89-14.74-16.66-26.37-29.34-34.93M593.98,188.74c-3.73,9.92-9.35,17.81-16.87,23.65-7.52,5.85-17,8.78-28.47,8.78s-21.46-2.81-28.91-8.43c-7.46-5.62-12.89-13.37-16.34-23.24-3.44-9.86-5.16-21.21-5.16-34.06s1.75-24.2,5.25-34.07c3.5-9.86,8.89-17.55,16.17-23.06,7.29-5.5,16.55-8.26,27.79-8.26,11.92,0,21.74,2.93,29.42,8.78,7.69,5.85,13.39,13.71,17.12,23.57,3.73,9.87,5.59,20.89,5.59,33.04s-1.86,23.37-5.59,33.29"/>
  <path class="cls-2" d="M807.34,70.35c-12.68-8.54-27.73-12.81-45.17-12.81s-32.32,4.27-44.31,12.81c-2.22,1.59-4.25,3.4-6.28,5.21V.76h-36.14v247.77h32.01v-17.33c3.29,3.45,6.76,6.69,10.67,9.5,12.05,8.67,26.96,13,44.73,13s32.26-4.31,44.82-12.91c12.57-8.61,22.26-20.34,29.08-35.19,6.82-14.85,10.24-31.58,10.24-50.16s-3.44-35.42-10.32-50.16c-6.89-14.74-16.66-26.37-29.34-34.93M803.21,188.74c-3.73,9.92-9.35,17.81-16.87,23.65-7.52,5.85-17,8.78-28.47,8.78s-21.46-2.81-28.91-8.43c-7.46-5.62-12.89-13.37-16.34-23.24-3.44-9.86-5.16-21.21-5.16-34.06s1.75-24.2,5.25-34.07c3.5-9.86,8.89-17.55,16.17-23.06,7.29-5.5,16.55-8.26,27.79-8.26,11.92,0,21.74,2.93,29.42,8.78,7.69,5.85,13.39,13.71,17.12,23.57,3.73,9.87,5.59,20.89,5.59,33.04s-1.86,23.37-5.59,33.29"/>
  <path class="cls-2" d="M1002.2,152.94c-9.18-4.87-21.57-9.31-37.17-13.33-14.57-3.67-25.57-6.82-33.03-9.46-7.47-2.65-12.48-5.39-15.06-8.27-2.59-2.85-3.87-6.36-3.87-10.49,0-7.12,3.38-12.7,10.15-16.78,6.76-4.07,15.6-5.88,26.5-5.42,11.35.46,20.59,3.27,27.7,8.43,7.12,5.17,11.3,12.23,12.57,21.16l36.83-6.7c-1.38-11.01-5.51-20.62-12.4-28.83-6.89-8.2-15.88-14.55-27.02-19.02-11.12-4.47-23.8-6.7-38.02-6.7s-27.27,2.29-38.12,6.87c-10.84,4.59-19.25,11.07-25.21,19.45-5.96,8.37-8.95,18.18-8.95,29.42,0,9.06,1.98,16.78,5.94,23.14,3.96,6.36,10.61,11.94,19.96,16.68,9.35,4.77,21.99,9.2,37.93,13.34,14.57,3.9,25.41,7.16,32.53,9.8,7.1,2.65,11.78,5.43,14.02,8.34,2.23,2.94,3.35,6.75,3.35,11.45,0,8.03-3.18,14.34-9.56,18.93-6.36,4.59-15.17,6.87-26.41,6.87-12.39,0-22.74-2.77-31.06-8.34-8.32-5.56-13.62-13.16-15.91-22.79l-36.83,5.67c3.21,18.13,11.92,32.18,26.16,42.16,14.22,9.98,32.63,14.97,55.24,14.97s41.95-5.22,55.32-15.65c13.36-10.44,20.05-24.84,20.05-43.19,0-9.53-1.99-17.64-5.94-24.36-3.96-6.7-10.53-12.5-19.71-17.38"/>
  <path class="cls-2" d="M1194.92,70.7c-13.31-8.78-29.42-13.16-48.35-13.16s-34.01,4.07-47.66,12.2c-13.66,8.15-24.3,19.68-31.92,34.59-7.63,14.91-11.44,32.52-11.44,52.82,0,19.16,3.86,36,11.61,50.5,7.75,14.52,18.59,25.82,32.53,33.9,13.93,8.09,30.14,12.13,48.61,12.13s34.35-4.57,49.03-13.68c14.69-9.12,25.65-21.99,32.87-38.63l-35.27-11.18c-4.59,9.53-10.99,16.84-19.18,21.94-8.2,5.1-17.92,7.65-29.17,7.65-17.1,0-30.17-5.59-39.23-16.77-7.47-9.22-11.68-21.76-12.99-37.25h138.26c1.38-22.26-1.23-41.47-7.82-57.64-6.61-16.17-16.55-28.66-29.86-37.42M1107.33,106.4c9.06-11.35,22.6-17.04,40.6-17.04,16.3,0,28.43,5.16,36.4,15.49,6,7.76,9.79,18.72,11.4,32.86h-100.63c1.91-12.85,5.89-23.39,12.22-31.32"/>
  <path class="cls-2" d="M1353.91,61.75c-6.08.4-12.02,1.54-17.81,3.44-5.79,1.89-11.04,4.57-15.74,8-4.82,3.22-9.07,7.31-12.74,12.31-1.65,2.23-3.11,4.6-4.47,7.03v-29.83h-32.01v185.83h36.31v-93.78c0-7.33.74-14.3,2.23-20.91,1.49-6.58,3.93-12.58,7.31-17.97,3.39-5.39,8-9.98,13.85-13.77,6.19-4.02,12.99-6.36,20.39-7.06,7.41-.68,14.15-.23,20.22,1.37v-33.72c-5.62-1.03-11.47-1.35-17.55-.95"/>
  <path class="cls-2" d="M1531.31,159.4c0,11.01-1.24,20.36-3.7,28.05-2.46,7.69-5.84,13.88-10.15,18.58-4.3,4.71-9.31,8.12-15.06,10.24-5.73,2.12-11.81,3.18-18.24,3.18-9.86,0-17.86-2-24.01-6.02-6.13-4.01-10.89-9.29-14.28-15.82-3.38-6.54-5.67-13.62-6.89-21.25-1.2-7.63-1.8-15.06-1.8-22.28V62.7h-36.49v103.24c0,5.74.52,12.4,1.55,19.96,1.03,7.58,2.97,15.31,5.85,23.23,2.87,7.92,7.02,15.23,12.47,21.94,5.45,6.71,12.53,12.13,21.25,16.26,8.72,4.13,19.5,6.19,32.35,6.19,16.76,0,31.04-3.61,42.85-10.84,7.27-4.44,13.39-10.11,18.58-16.73v22.59h32.01V62.7h-36.31v96.7Z"/>
  <path class="cls-2" d="M1858.07,76.12c-11.01-12.05-26.56-18.07-46.63-18.07-12.4,0-23.58,2.73-33.56,8.17-9.57,5.23-17.17,12.54-22.89,21.84-4.83-9.16-11.55-16.43-20.29-21.66-9.3-5.57-20.55-8.35-33.73-8.35s-23.92,2.76-33.89,8.26c-7.74,4.26-14.19,9.77-19.45,16.45v-20.06h-32.01v185.83h36.14v-116.14c0-12.62,3.47-22.83,10.42-30.62,6.93-7.81,16.09-11.71,27.44-11.71s20.62,3.84,27.44,11.52c6.82,7.69,10.24,18.3,10.24,31.84l-.17,115.11h35.97l.16-116.16h.01c0-9.4,1.75-17.22,5.25-23.47,3.5-6.25,8.09-10.96,13.77-14.11,5.67-3.16,11.96-4.74,18.85-4.74,11.23,0,20.3,3.76,27.17,11.27,6.89,7.52,10.33,17.98,10.33,31.4l-.17,115.8h35.95l.17-124.4c0-19.96-5.5-35.97-16.51-48.01"/>
</svg>